<?xml version="1.0" encoding="UTF-8"?>
<svg id="Layer_1" xmlns="http://www.w3.org/2000/svg" version="1.1" viewBox="0 0 1000 400">
  <!-- Generator: Adobe Illustrator 30.0.0, SVG Export Plug-In . SVG Version: 2.1.1 Build 123)  -->
  <defs>
    <style>
      .st0, .st1 {
        fill: #fffff3;
      }

      .st0, .st2 {
        stroke: #333;
        stroke-miterlimit: 10;
      }

      .st3 {
        fill: #fff;
      }

      .st4 {
        fill: #a3a155;
      }

      .st5 {
        isolation: isolate;
      }

      .st6 {
        fill: #333;
      }

      .st7 {
        fill: #ffcaca;
      }

      .st8 {
        fill: #88d;
      }

      .st2 {
        fill: none;
      }
    </style>
  </defs>
  <g id="laptop">
    <polygon class="st8" points="439 318.5 350 318.5 350 255.5 412 256.5 439 318.5"/>
    <g>
      <path class="st6" d="M420.13,62.67c0-6.88-5.63-12.51-12.51-12.51H107.36c-6.88,0-12.51,5.63-12.51,12.51v187.67h325.29V62.67h-.01ZM407.62,237.82H107.36V62.66h300.27v175.16h-.01Z"/>
      <path class="st6" d="M420.13,256.59H94.85l-37.53,75.07v3.13c0,6.88,2.5,9.38,9.38,9.38h381.59c6.88,0,9.38-2.5,9.38-9.38v-3.13l-37.53-75.07h0ZM429.58,305.07H94.46c-.54,0-1.04-.28-1.33-.74-.28-.46-.31-1.04-.07-1.52l18.77-37.53c.26-.53.81-.87,1.4-.87h297.52c.59,0,1.13.34,1.4.86l18.59,37.19c.25.27.4.64.4,1.04,0,.86-.7,1.56-1.56,1.56h0Z"/>
      <polygon class="st6" points="324.97 276.92 323.41 267.54 305.06 267.54 305.84 276.92 324.97 276.92"/>
      <polygon class="st6" points="302.71 276.92 301.93 267.54 283.55 267.54 283.55 276.92 302.71 276.92"/>
      <rect class="st6" x="234.55" y="280.05" width="21.37" height="9.38"/>
      <rect class="st6" x="234.55" y="267.54" width="21.37" height="9.38"/>
      <polygon class="st6" points="231.42 276.92 231.42 267.54 213.05 267.54 212.27 276.92 231.42 276.92"/>
      <polygon class="st6" points="347.23 276.92 344.88 267.54 326.58 267.54 328.15 276.92 347.23 276.92"/>
      <polygon class="st6" points="391.72 276.92 387.81 267.54 369.66 267.54 372.78 276.92 391.72 276.92"/>
      <polygon class="st6" points="414.48 276.92 409.78 267.54 391.2 267.54 395.11 276.92 414.48 276.92"/>
      <polygon class="st6" points="369.48 276.92 366.36 267.54 348.11 267.54 350.45 276.92 369.48 276.92"/>
      <polygon class="st6" points="144.45 280.05 141.32 289.43 161.39 289.43 163.74 280.05 144.45 280.05"/>
      <polygon class="st6" points="121.95 280.05 118.04 289.43 138.03 289.43 141.16 280.05 121.95 280.05"/>
      <rect class="st6" x="259.05" y="280.05" width="21.37" height="9.38"/>
      <polygon class="st6" points="212.01 280.05 211.23 289.43 231.42 289.43 231.42 280.05 212.01 280.05"/>
      <rect class="st6" x="259.05" y="267.54" width="21.37" height="9.38"/>
      <polygon class="st6" points="189.48 280.05 187.91 289.43 208.09 289.43 208.87 280.05 189.48 280.05"/>
      <polygon class="st6" points="166.96 280.05 164.62 289.43 184.75 289.43 186.31 280.05 166.96 280.05"/>
      <polygon class="st6" points="164.52 276.92 166.86 267.54 148.62 267.54 145.49 276.92 164.52 276.92"/>
      <polygon class="st6" points="123.78 267.54 114.19 267.54 109.5 276.92 119.87 276.92 123.78 267.54"/>
      <polygon class="st6" points="187.4 292.56 185.83 301.94 207.05 301.94 207.83 292.56 187.4 292.56"/>
      <polygon class="st6" points="140.28 292.56 137.15 301.94 158.26 301.94 160.61 292.56 140.28 292.56"/>
      <polygon class="st6" points="281.99 292.56 257.49 292.56 232.99 292.56 210.97 292.56 210.18 301.94 304.79 301.94 304.01 292.56 281.99 292.56"/>
      <polygon class="st6" points="163.83 292.56 161.49 301.94 182.66 301.94 184.23 292.56 163.83 292.56"/>
      <polygon class="st6" points="116.74 292.56 112.83 301.94 133.86 301.94 136.98 292.56 116.74 292.56"/>
      <polygon class="st6" points="118.56 280.05 107.94 280.05 103.25 289.43 114.65 289.43 118.56 280.05"/>
      <polygon class="st6" points="101.68 292.56 96.99 301.94 109.44 301.94 113.35 292.56 101.68 292.56"/>
      <polygon class="st6" points="377.99 292.56 381.12 301.94 402.15 301.94 398.24 292.56 377.99 292.56"/>
      <polygon class="st6" points="209.13 276.92 209.92 267.54 191.56 267.54 190 276.92 209.13 276.92"/>
      <polygon class="st6" points="307.15 292.56 307.93 301.94 329.15 301.94 327.58 292.56 307.15 292.56"/>
      <polygon class="st6" points="405.54 301.94 426.99 301.94 422.3 292.56 401.63 292.56 405.54 301.94"/>
      <polygon class="st6" points="400.32 289.43 420.73 289.43 416.04 280.05 396.41 280.05 400.32 289.43"/>
      <polygon class="st6" points="186.83 276.92 188.39 267.54 170.09 267.54 167.74 276.92 186.83 276.92"/>
      <polygon class="st6" points="330.75 292.56 332.32 301.94 353.49 301.94 351.14 292.56 330.75 292.56"/>
      <polygon class="st6" points="303.75 289.43 302.96 280.05 283.55 280.05 283.55 289.43 303.75 289.43"/>
      <polygon class="st6" points="354.36 292.56 356.71 301.94 377.82 301.94 374.7 292.56 354.36 292.56"/>
      <polygon class="st6" points="142.2 276.92 145.33 267.54 127.16 267.54 123.25 276.92 142.2 276.92"/>
      <polygon class="st6" points="327.06 289.43 325.49 280.05 306.1 280.05 306.89 289.43 327.06 289.43"/>
      <polygon class="st6" points="350.36 289.43 348.01 280.05 328.66 280.05 330.23 289.43 350.36 289.43"/>
      <polygon class="st6" points="373.65 289.43 370.52 280.05 351.24 280.05 353.58 289.43 373.65 289.43"/>
      <polygon class="st6" points="396.93 289.43 393.02 280.05 373.82 280.05 376.95 289.43 396.93 289.43"/>
      <polygon class="st3" points="407.62 237.82 107.36 237.82 107.36 62.66 407.63 62.66 407.63 237.82 407.62 237.82"/>
      <rect class="st6" x="117.47" y="83.83" width="11.56" height="3.33"/>
    </g>
  </g>
  <g id="Text">
    <g class="st5">
      <g class="st5">
        <path class="st8" d="M559.57,49.4v26.88h-2.64c-1.56-6.2-3.3-10.66-5.2-13.37-1.9-2.71-4.52-4.87-7.84-6.48-1.86-.88-5.1-1.32-9.74-1.32h-7.4v76.61c0,5.08.28,8.25.84,9.52s1.66,2.38,3.3,3.33,3.87,1.43,6.7,1.43h3.3v2.71h-52v-2.71h3.3c2.88,0,5.2-.51,6.96-1.54,1.27-.68,2.27-1.86,3-3.52.54-1.17.81-4.25.81-9.23V55.12h-7.18c-6.69,0-11.55,1.42-14.58,4.25-4.25,3.96-6.93,9.59-8.06,16.92h-2.78v-26.88h89.21Z"/>
        <path class="st8" d="M605.86,55.12v40.43h1.98c6.3,0,10.86-1.98,13.7-5.93,2.83-3.96,4.64-9.79,5.42-17.5h2.78v52h-2.78c-.59-5.66-1.82-10.3-3.7-13.92-1.88-3.61-4.06-6.04-6.55-7.29s-6.1-1.87-10.84-1.87v27.98c0,5.47.23,8.81.7,10.03.46,1.22,1.33,2.22,2.6,3,1.27.78,3.32,1.17,6.15,1.17h5.93c9.28,0,16.71-2.15,22.3-6.45,5.59-4.3,9.61-10.84,12.05-19.63h2.71l-4.47,31.57h-85.84v-2.71h3.3c2.88,0,5.2-.51,6.96-1.54,1.27-.68,2.25-1.86,2.93-3.52.54-1.17.81-4.25.81-9.23v-65.33c0-4.49-.12-7.25-.37-8.28-.49-1.71-1.39-3.03-2.71-3.96-1.86-1.37-4.39-2.05-7.62-2.05h-3.3v-2.71h83.13v29.37h-2.78c-1.42-7.18-3.41-12.33-5.97-15.45s-6.19-5.42-10.88-6.88c-2.74-.88-7.86-1.32-15.38-1.32h-10.25v.02Z"/>
        <path class="st8" d="M728.39,90.49l27.39,40.65c4.54,6.74,7.77,10.83,9.7,12.27s4.21,2.31,6.85,2.6v2.71h-48.41v-2.71c3.86-.29,6.35-.88,7.47-1.76,1.12-.88,1.68-1.95,1.68-3.22,0-.88-.17-1.66-.51-2.34-.68-1.46-2.39-4.2-5.13-8.2l-14.5-21.46-15.16,18.53c-4.54,5.62-6.81,9.42-6.81,11.43,0,1.42.59,2.74,1.76,3.96s2.9,2.1,5.2,2.64c1.03.29,3.12.44,6.3.44v2.71h-38.16v-2.71c4.34-.63,7.76-1.81,10.25-3.52,3.27-2.25,7.84-6.93,13.7-14.06l19.7-24.02-25.27-37.13c-4.15-6.1-6.52-9.5-7.1-10.18-1.32-1.61-2.61-2.76-3.88-3.44s-3.03-1.2-5.27-1.54v-2.71h49.29v2.71h-2.49c-2.83,0-4.81.45-5.93,1.35-1.12.9-1.68,2.04-1.68,3.41,0,1.07.17,2,.51,2.78l5.05,7.62,12.3,18.75,10.47-12.82c5.37-6.59,8.06-11.21,8.06-13.84,0-1.32-.38-2.54-1.14-3.66s-1.84-2-3.26-2.64c-1.42-.63-3.61-.95-6.59-.95v-2.71h36.55v2.71c-2.88.05-5.2.4-6.96,1.06s-3.64,1.89-5.64,3.7c-1.27,1.17-4.44,4.81-9.52,10.91l-18.82,22.71v-.03Z"/>
        <path class="st8" d="M867.99,49.4v26.88h-2.64c-1.56-6.2-3.3-10.66-5.2-13.37-1.9-2.71-4.52-4.87-7.84-6.48-1.86-.88-5.1-1.32-9.74-1.32h-7.4v76.61c0,5.08.28,8.25.84,9.52s1.66,2.38,3.3,3.33,3.87,1.43,6.7,1.43h3.3v2.71h-52v-2.71h3.3c2.88,0,5.2-.51,6.96-1.54,1.27-.68,2.27-1.86,3-3.52.54-1.17.81-4.25.81-9.23V55.12h-7.18c-6.69,0-11.55,1.42-14.58,4.25-4.25,3.96-6.93,9.59-8.06,16.92h-2.78v-26.88h89.21Z"/>
      </g>
    </g>
    <g>
      <path class="st6" d="M542.71,290.58c23.92-27.6,64.86-5.75,46.46,27.37-14.72,19.78-36.57,29.9-63.25,26.91-28.52-3.22-52.67-27.6-51.29-64.4,1.84-49.22,43.47-103.5,97.29-91.77,11.5,2.99,19.32,12.88,19.55,24.38s-6.9,21.39-17.94,25.07c-8.97,3.22-13.57.23-26.91,4.6-17.02,5.75-32.89,64.63-3.91,47.15v.69h0Z"/>
      <path class="st6" d="M744.19,304.84c18.63,29.9-19.78,54.97-46,25.99-7.13-8.05-46-5.52-52.9,1.38-24.84,24.61-61.64,8.05-47.38-22.31,14.95-34.5,30.82-68.54,46-102.81,47.15-79.12,79.12,66.93,99.82,97.75h.46ZM672.89,257.46c-9.43,0-10.35,15.64-.46,15.87,9.66,0,10.81-15.87.46-15.87Z"/>
      <path class="st6" d="M771.33,322.78c-1.15-15.64.92-74.75,1.15-88.55,0-2.53-.69-2.99-3.22-2.99-44.16,5.98-49.45-40.94-17.25-48.3,28.52-1.38,57.27.23,86.02,0,16.1-1.15,31.51,13.57,26.68,29.9-7.82,29.9-44.39,12.65-43.24,21.39-.46,27.37-.92,54.74-1.38,82.11-.23,9.89-3.45,18.4-12.19,23.69-14.72,8.97-34.04-.23-36.34-17.25h-.23Z"/>
    </g>
    <path d="M525.5,192.83s-1.96-2.02-2.96-6.39-.13-10.17.38-13.83,2.31-11.39,4.66-11.39,7.38,6.66,9.41,10.76c2.25,4.54,3.13,7.04,3.32,10.46.11,1.87-.06,4.29-.95,4.54-5.16,1.47-10.95,4.34-13.87,5.84h.01Z"/>
    <path d="M582.08,193.92s1.4-1.17,2.41-5.54.13-10.17-.38-13.83-2.31-11.39-4.66-11.39-7.38,6.66-9.41,10.76c-2.25,4.54-3.13,7.04-3.32,10.46-.11,1.87.3,2.88,1.2,3.03,6.5,1.08,9.83,3.25,14.17,6.5h-.01Z"/>
    <g>
      <g>
        <path class="st1" d="M536.87,283.15v-.69c-28.98,17.48-13.11-41.4,3.91-47.15,13.34-4.37,17.94-1.38,26.91-4.6,11.04-3.68,18.17-13.57,17.94-25.07-.17-8.6-4.32-16.34-11.35-20.92,1.11.72,1.93,1.55,3.11,2.43,0,0,1.4-1.17,2.41-5.54,1.01-4.37.13-10.17-.38-13.83-.5-3.66-2.31-11.39-4.66-11.39s-7.38,6.66-9.41,10.76c-2.25,4.54-3.13,7.04-3.32,10.46-.11,1.87.33,2.9,1.23,3.05,4.68.78,7.61,2.18,10.56,4.08-2.34-1.51-5.29-3.85-8.14-4.59-15.16-4.11-28.71-.3-41.24,5.18,2.57-1.16,5.5-2.34,8.24-3.12.88-.25,1.05-2.67.95-4.54-.19-3.42-1.07-5.93-3.32-10.46-2.03-4.1-7.06-10.76-9.41-10.76s-4.16,7.73-4.66,11.39-1.39,9.46-.38,13.83,2.96,6.39,2.96,6.39c.37-.19.78-.4,1.22-.62-29.9,15.53-49.97,51.76-51.23,85.59-1.38,36.8,22.77,61.18,51.29,64.4,26.68,2.99,48.53-7.13,63.25-26.91,18.4-33.12-22.54-54.97-46.46-27.37h-.02,0Z"/>
        <path class="st6" d="M528.66,338.2c-2.93,0-5.91-.17-8.94-.51-14.53-1.64-27.74-8.67-37.18-19.78-10.18-11.98-15.21-27.58-14.55-45.13,1.3-34.87,21.66-69.52,49.75-85.07-.65-.85-1.93-2.85-2.7-6.15-.98-4.26-.21-9.81.3-13.49l.07-.52c.02-.12,1.67-11.82,5.16-11.82,2.72,0,7.93,7.15,9.86,11.04,2.12,4.28,3.16,6.96,3.37,10.66.06,1.11.07,2.72-.3,3.83,9.1-2.49,18.45-3,27.96-1.54-.22-.58-.31-1.37-.25-2.36.21-3.7,1.25-6.38,3.37-10.66,1.93-3.89,7.14-11.04,9.86-11.04,3.49,0,5.14,11.7,5.16,11.82l.07.52c.51,3.68,1.28,9.23.3,13.49-.78,3.39-1.6,5.07-2.08,5.65,5.03,4.76,7.79,11.23,7.93,18.25.23,11.74-6.71,22.04-18.05,25.82-4.22,1.52-7.74,1.83-11.28,2-4.09.2-8.58.29-15.67,2.61-8.78,2.97-17.79,20.82-19.51,34.43-.89,7.06.19,11.98,3.05,13.83,2.59,1.69,6.61.91,11.94-2.3l.76-.46v.26c13.06-14.2,30.37-14.29,40.97-6.87,8.41,5.88,14.88,18.79,5.43,35.8-13.43,18.05-32.65,27.67-54.8,27.67v.02h0ZM567.88,182.08s-1.6-.42-2.22-.57c-14.1-3.47-28.1-1.73-41.33,4.06l5.97-2.76c1.12-.54,1.29-.69,1.94-1.3.25-.23.72-1.58.58-4.03-.18-3.17-.94-5.57-3.27-10.27-2.22-4.48-7.06-10.48-8.96-10.48-1.57,0-3.45,5.77-4.17,10.96l-.07.52c-.5,3.6-1.26,9.05-.31,13.13.76,3.28,2.07,5.2,2.6,5.88.17.21.4.33.79.4l.54.05c-28.69,14.9-49.65,49.92-50.96,85.16-1.43,38.01,24.5,60.91,50.85,63.88,25.92,2.91,47.63-6.33,62.79-26.71,9.09-16.37,2.91-28.79-5.16-34.44-10.47-7.33-27.75-7.04-40.52,7.69l-.88,1.01v-1.16c-5.32,3.04-9.43,3.66-12.24,1.83-3.2-2.08-4.44-7.33-3.5-14.8,1.79-14.19,10.72-32.4,19.99-35.53,7.22-2.37,11.93-2.6,16.08-2.8,3.61-.18,6.73-.33,10.82-1.8,10.93-3.64,17.83-13.29,17.61-24.59-.17-8.28-3.43-14.88-8.91-18.84l-.96-.67.77.38c1.08.5,1.12.17,1.29-.05.42-.55,1.3-1.98,1.99-4.97.94-4.08.19-9.53-.31-13.13l-.07-.52c-.72-5.18-2.6-10.96-4.17-10.96-1.91,0-6.75,6-8.96,10.48-2.33,4.7-3.09,7.1-3.27,10.27-.06,1.07.09,2.18.78,2.51"/>
      </g>
      <path class="st0" d="M737.59,297.18c-20.7-30.82-52.67-176.87-99.82-97.75-15.18,34.27-31.05,68.31-46,102.81-14.26,30.36,22.54,46.92,47.38,22.31,6.9-6.9,45.77-9.43,52.9-1.38,26.22,28.98,64.63,3.91,46-25.99h-.46ZM666.29,265.67c-9.89-.23-8.97-15.87.46-15.87,10.35,0,9.2,15.87-.46,15.87Z"/>
      <path class="st2" d="M737.59,297.18c-20.7-30.82-52.67-176.87-99.82-97.75-15.18,34.27-31.05,68.31-46,102.81-14.26,30.36,22.54,46.92,47.38,22.31,6.9-6.9,45.77-9.43,52.9-1.38,26.22,28.98,64.63,3.91,46-25.99h-.46ZM666.29,265.67c-9.89-.23-8.97-15.87.46-15.87,10.35,0,9.2,15.87-.46,15.87Z"/>
      <path class="st0" d="M831.89,175.28c-28.75.23-57.5-1.38-86.02,0-32.2,7.36-26.91,54.28,17.25,48.3,2.53,0,3.22.46,3.22,2.99-.23,13.8-2.3,72.91-1.15,88.55h.23c2.3,17.02,21.62,26.22,36.34,17.25,8.74-5.29,11.96-13.8,12.19-23.69.46-27.37.92-54.74,1.38-82.11-1.15-8.74,35.42,8.51,43.24-21.39,4.83-16.33-10.58-31.05-26.68-29.9h0Z"/>
      <path class="st2" d="M831.89,175.28c-28.75.23-57.5-1.38-86.02,0-32.2,7.36-26.91,54.28,17.25,48.3,2.53,0,3.22.46,3.22,2.99-.23,13.8-2.3,72.91-1.15,88.55h.23c2.3,17.02,21.62,26.22,36.34,17.25,8.74-5.29,11.96-13.8,12.19-23.69.46-27.37.92-54.74,1.38-82.11-1.15-8.74,35.42,8.51,43.24-21.39,4.83-16.33-10.58-31.05-26.68-29.9h0Z"/>
    </g>
  </g>
  <g id="cat">
    <path id="catFill" class="st1" d="M427.31,207.92l4.36,7.71-.23-2.4c0-.08-.76-7.88-2.59-17.39-1.71-8.9.39-1.29-1.69-6.11l-.52-1.21c-1.2-2.8-2.95-6.04-4.3-8.43l8.28,8.28-1.41-2.83c-.07-.13-6.71-13.39-10.75-18.9-4.26-5.81-11-10.07-14.49-12.86-1.3-1.04-2.74-2.04-4.07-2.9l7.85,2.8-1.92-1.73c-.08-.07-7.84-7.08-14.06-11.84s-13.21-8.85-19.68-11.51c-2.56-1.06-5.32-1.93-7.7-2.6l11.1.85-2.64-1.2c-.12-.06-12.35-5.58-21.54-7.05-9.5-1.52-25.9-2.65-35.42-1.55-12.81,1.48-17.1.26-25.23,3.27-9.76,3.61-33.32,6.77-43.53,13.2-9.13,5.75-31.25,12.19-42.35,18.27l-2.94,1.61c-10.53,5.77-26.57,14.15-28.86,15.35-4.75.28-10.82.83-16.02,1.95-10.18,2.18-22.17,8.09-26.02,10.78l-.63.44c-3.23,2.27-5.01,3.52-8.67,3.52-3.92,0-23.63-2.53-30.92-3.68-1.47-.23-2.93-.5-4.34-.75-5.43-.99-10.12-1.84-12.62-.28-3.53,2.21-3.02,5.46-2.06,8.35,1.14,3.42,7.85,10.16,14.96,15.02,1.81,1.24,3.69,2.51,5.53,3.76,3.48,2.36,6.83,4.62,9.36,6.42-.66,1.16-4.91,8.92-6.61,18.46-2.09,11.7-1.51,26.56,1.49,37.87.89,3.38,2.29,6.85,3.98,10.23-3.99,1.31-8.24,4.18-11.54,6.57-4.33,3.15-11.36,9.14-9.78,13.86,1.35,4.06,5.53,5.58,6.71,5.94-2.32,2.65-3.6,5.16-3.04,9.1.86,6.04,6.2,8.03,11.84,9.29,1.75.39,3.57.55,5.35.55,5.93,0,11.55-1.73,13.73-2.4,2.47-.76,5.12-2.47,7.69-4.12,2.51-1.61,5.11-3.28,7.44-4,2.98-.92,4.93-.81,6.82-.7.96.05,1.95.1,3.03.01,4.68,2.07,9.48,3.8,13.87,4.76,11.27,2.47,20.42,2.92,27.76,3.28l1.11.06c.33.02.67.02,1.01.02,7.7,0,17.43-4.12,21.46-7.14l1.11-.83c2.18-1.63,4.89-3.65,7.79-6.08l37.22.24c6.39,5.27,13.55,9.59,20.97,11.91,11.19,3.5,16.36,4.17,19.19,4.84.23.05,2.42.67,2.67.67l3.5.5c1.83.5,6.89,1.25,14.67,1.17,9.23-.1,17.33-1.33,21.5-2,5.72-.92,27.27-3.52,35.7-7.74,7.53-3.76,23.58-14.97,34.11-27.06,10.07-11.56,20.39-32.62,23.36-42.63,3.04-10.25,2.43-33.63,2.08-37.52-.12-1.33-.28-2.49-.44-3.47h0Z"/>
    <path class="st4" d="M110.67,295.72c4.5-3.67,22.43-19.63,29.97-33.88,9.51-17.97,13.92-36.91,13.69-54.43,5.71,8.68,12.84,16.92,21.32,24.33,14.79,12.91,29.03,18.67,45.57,22.65-.67-15.89,1.67-19.67,2.33-24.67,1.59-11.9,18.11-34.22,18.11-34.22,0,0,10.67-9.33,16.65-9.48,17.95-22.46,39.57-37.48,31.69-62.58-1.09.35,1.69-3.48.66-3.1-10.2,2.53-31.98,8.49-43.49,13.18-.02,0-.05.02-.07.03-9.56,4.81-31.23,12.18-42.31,18.25l-2.94,1.61c-10.53,5.77-26.57,14.15-28.86,15.35-4.75.28-10.82.83-16.02,1.95-10.18,2.18-22.17,8.09-26.02,10.78l-.63.44c-3.23,2.27-5.01,3.52-8.67,3.52-3.92,0-23.63-2.53-30.92-3.68-1.47-.23-2.93-.5-4.34-.75-5.43-.99-10.12-1.84-12.62-.28-3.53,2.21-3.02,5.46-2.06,8.35,1.14,3.42,7.85,10.16,14.96,15.02,1.81,1.24,3.69,2.51,5.53,3.76,3.48,2.36,6.83,4.62,9.36,6.42-.66,1.16-4.91,8.92-6.61,18.46-2.09,11.7-1.51,26.56,1.49,37.87.89,3.38,2.29,6.85,3.98,10.23,0,0,5.43,9.55,10.26,14.88h0Z"/>
    <path class="st4" d="M427.75,211.38c-.12-1.33-.28-2.49-.44-3.47l4.36,7.71-.23-2.4c0-.08-.76-7.88-2.59-17.39-.52-.16.39-1.29-1.69-6.11l-.52-1.21c-1.2-2.8-2.95-6.04-4.3-8.43l8.28,8.28-1.41-2.83c-.07-.13-6.71-13.39-10.75-18.9-4.26-5.81-11-10.07-14.49-12.86-1.3-1.04-2.74-2.04-4.07-2.9l7.85,2.8-1.92-1.73c-.08-.07-7.84-7.08-14.06-11.84s-13.21-8.85-19.68-11.51c-2.56-1.06-5.32-1.93-7.7-2.6l11.1.85-2.64-1.2c-.12-.06-12.35-5.58-21.54-7.05-9.5-1.52-25.97-2.48-35.42-1.55-12.81,1.48-16.64,2.38-25.23,3.27-3.01,1.12-11.05,7.06-15.71,9.12l-16.13,55.55s7.33-1.17,12.67-.67c8.5-13.17,42.83-27.5,72.17-8.17,10.79,7.11,32.67,11.33,37.33,21.33,7.66,16.41.37,21.34-5.33,26-1.82,1.49-28.44,7.11-26,25.33,3.06,22.8,38.8,18.41,25.33,41.67-7.33,12.67-22.67-5-30.67-.33-8.42,4.91-7.78,12.44-12.67,20s-17.61,6.78-25.78,4c-4.89-1.67-16.89-6.67-21.78,10.22-.03.11-.05.22-.08.33,2.86.64,4.77.96,6.13,1.28.23.05,2.42.67,2.67.67l3.5.5c1.83.5,6.89,1.25,14.67,1.17,9.23-.1,17.33-1.33,21.5-2,5.72-.92,27.27-3.52,35.7-7.74,7.53-3.76,23.58-14.97,34.11-27.06,10.07-11.56,20.39-32.62,23.36-42.63,3.04-10.25,2.43-33.63,2.08-37.52h.02Z"/>
    <path class="st4" d="M230.5,287c-1.6,3.1-9.78,14.94-17.17,21,7.83.33,23.17.83,35.46.23-10.46-11.23-12.28-13.14-18.29-21.23Z"/>
    <path class="st7" d="M187.61,288.9c-.75-.13-3.15.43-8.28,1.91-.37.11-.64.19-.79.23-.68.19-1,.59-1.14.9-.24.51-.22,1.16.08,1.82.47,1.05,5.76,5.36,6.89,5.88l.15.04s.17.02.4.02c.62,0,1.8-.11,2.52-.92.59-.66,1.23-2.91,2.09-7.29l.06-.32c.1-.5.02-.95-.24-1.32-.33-.48-.91-.79-1.74-.93v-.02h0Z"/>
    <g>
      <path class="st6" d="M427.28,207.84l4.36,7.72-.22-2.34c0-.08-.42-7.63-2.25-17.14-.16-1.25-1-4.25-2.03-6.37l-.52-1.21c-1.21-2.83-2.99-6.12-4.35-8.52l8.3,8.3-1.38-2.76c-.07-.13-6.48-13.28-10.52-18.78-2.85-4.55-8-8.17-11.96-10.87-1.02-.76-1.96-1.46-2.75-2.1-1.33-1.07-2.81-2.09-4.17-2.96l7.9,2.82-1.87-1.69c-.08-.07-7.84-7.08-14.06-11.84s-13.21-8.84-19.67-11.51c-2.61-1.07-5.43-1.96-7.83-2.63l11.16.86-2.58-1.17c-.12-.06-12.35-5.58-21.53-7.05-9.5-1.52-25.9-2.65-35.41-1.55-12.9,1.22-16.9,2.11-25.23,3.27-10.17,1.5-33.36,8.57-43.53,13.2-9.5,4.29-31.24,12.18-42.32,18.25l-2.97,1.62c-10.53,5.77-26.56,14.15-28.86,15.35-4.75.28-10.83.83-16.03,1.95-10.18,2.18-22.17,8.09-26.02,10.78l-.63.45c-3.23,2.27-4.98,3.49-8.64,3.49-3.92,0-23.67-2.64-30.96-3.79-1.47-.23-2.92-.35-4.33-.6-5.43-.99-10.12-1.84-12.61-.28-3.52,2.2-3.02,5.45-2.05,8.33,1.14,3.42,7.85,10.15,14.95,15.02,1.82,1.24,3.69,2.52,5.54,3.76,3.43,2.43,6.61,4.61,9.17,6.36-.64,1.13-4.79,8.97-6.5,18.54-2.09,11.7-1.54,26.62,1.46,37.92.9,3.38,2.26,6.74,3.96,10.12-3.99,1.3-8.16,4.07-11.46,6.46-4.33,3.15-11.4,9.32-9.83,14.04,1.31,3.93,5.24,5.65,6.54,6.13-2.22,2.59-3.43,5.11-2.88,8.96.86,6.03,6.24,8.03,11.88,9.29,1.75.39,3.63.54,5.42.54,5.92,0,11.6-1.75,13.79-2.42,2.46-.76,5.1-2.39,7.67-4.04,2.51-1.61,5.21-3.4,7.54-4.13,2.98-.92,5.04-.69,6.92-.58.96.05,1.37.17,2.46.08,4.68,2.07,9.54,3.66,13.93,4.62,11.27,2.47,20.47,2.95,27.82,3.31l1.12.04c.33.02,1.26.18,1.6.18,7.7,0,16.96-4.19,20.99-7.22l1.38-.96c2.18-1.62,4.86-3.57,7.75-6l36.92.21c6.39,5.28,13.64,9.66,21.08,11.92,16.32,4.97,22,6.17,26.68,6.78,4.65.6,9.33.86,13.83.86,8.89,0,17.08-.98,22.83-2.2,5.71-1.2,25.84-3.91,34.07-8.02,7.53-3.76,23.3-14.74,33.83-26.83,10.79-12.71,20.54-32.82,23.5-42.83,3.04-10.25,2.41-33.69,2.06-37.58-.12-1.36-.29-2.55-.45-3.54h0ZM80.05,300.95c-1.42-4.27,6.11-10.32,9.42-12.72,3.28-2.39,7.52-5.25,11.42-6.48,2.02,3.89,4.42,7.63,6.94,10.95-.83.4-3.2,1.53-5.54,2.41-3.01,1.13-9.37,4.88-13.47,8.97-.9.9-1.72,1.73-2.47,2.54v-.04s-4.92-1.49-6.3-5.62h0ZM135.69,313.91c-1.98-.11-4.02-.22-7.17.75-2.46.76-5.12,2.47-7.69,4.12-2.51,1.61-5.11,3.28-7.44,4-2.78.86-11.25,3.46-18.57,1.84-7.32-1.63-10.42-3.99-11.05-8.44-.7-4.92,1.73-7.35,5.76-11.39,4-4,10.18-7.65,13.11-8.74,2.57-.96,5.17-2.22,5.81-2.53,3.11,4,6.36,7.33,9.22,9.48,4.17,3.13,11.25,7.41,18.88,10.97-.28-.01-.56-.03-.85-.04v-.02h0ZM213.94,308c2.92-2.52,5.97-5.43,8.84-8.78,4.85-5.65,6.96-9.72,7.77-11.58.1.15.19.32.29.47,4.47,6.6,10.69,13.91,17.95,20.12l-34.86-.23h.01ZM173.26,169.69c4.48-.26,7.73-.26,7.79-.26l-4.96-.76c-.06,0-.38-.04-.71-.08,5.12-2.68,18.01-9.45,26.95-14.35l2.97-1.62c11.1-6.08,32.63-14.21,42.37-18.29,10.39-4.76,33.5-11.42,43.34-13.11,7.83-.97,11.99-2.11,24.99-3.22,9.44-.89,25.72.04,35.14,1.54,6.43,1.03,14.39,4.08,18.51,5.79l-11.38-.88-4.39-.16c.07.01,11.66,2.64,17.81,5.18,6.39,2.63,13.29,6.67,19.45,11.38,4.32,3.3,9.38,7.7,12.08,10.08l-7.92-2.83-2.42-.7s6.82,4.2,10.43,7.09c.81.64,1.75,1.35,2.78,2.12,3.74,2.8,8.39,6.27,11.52,10.55,2.85,3.89,7.03,11.72,9.22,15.93l-9.59-9.59,2.19,3.59c.04.07,4.07,6.67,6.24,11.75l.52,1.21c.73,1.7,1.82,4.87,1.97,6.16,1.21,6.31,1.61,11.61,1.97,14.63l-5.67-10.03,1.15,4.04s.73,2.59,1.09,6.55c.35,3.84.97,26.99-2.04,37.14l.04.08h0c-2.94,9.92-13.17,30.8-23.15,42.26-10.44,11.99-26.34,23.09-33.8,26.82-8.16,4.08-28.02,6.8-33.68,7.99-8.58,1.81-22.64,3.11-36.33,1.33-4.62-.6-10.21-1.86-26.46-6.81-16.23-4.94-31.09-20.1-39.59-32.65-8.1-11.95-11.94-33.07-9.15-50.2,3.06-18.73,11.58-30.66,16.15-37.07,4.96-6.95,11.46-11.73,19.3-14.21,7.28-2.3,17.37-1.69,23.99,1.45,7.41,3.51,12.83,9.19,14.49,15.18,1.79,6.46.41,17.72-2.91,23.61-3.24,5.76-11.61,11.61-14.55,13.08-4.19,2.1-11.84,7.39-13.91,13.95-2.34,7.42-3.26,13.37,6.41,22.29,10.15,9.37,25.81,9.36,27.31,9.36l7.72-.26c-5.56,0-24.47-.71-34.35-9.83-9.24-8.53-8.37-14.19-6.14-21.26,1.97-6.24,9.35-11.33,13.4-13.36,3.02-1.51,11.63-7.54,14.98-13.49,3.42-6.08,4.85-17.7,3-24.37-1.77-6.37-7.25-12.13-15.03-15.82-2.89-1.37-6.42-2.27-10.09-2.67,8.53-9.05,18.88-13.32,26.15-15.3,14.35-3.91,33.42-.12,48.04,9.18,0,0-4.83-4-11.5-6.83s-22.18-7.3-36.8-3.32c-7.54,2.06-18.37,6.53-27.16,16.14-4.63-.37-9.4.04-13.36,1.29-8.06,2.54-14.72,7.45-19.82,14.58-.75,1.06-1.62,2.28-2.55,3.64-1.16-1.59-5.52-7.28-11.46-11.66.46-.5.92-1,1.37-1.49,1.55-1.67,3.01-3.25,4.19-4.63,4.48-5.22,11.86-16.29,14.1-21.15,1.11-2.4,1.2-4.34.28-5.79-.96-1.51-3-2.31-5.9-2.31-4.2,0-10.71,2.83-17.61,5.82-1.8.78-3.63,1.58-5.46,2.34-8.86,3.69-24.73,10.33-24.73,10.33l5.67-1.41s10.58-4.31,19.44-8c1.84-.77,3.67-1.56,5.48-2.35,6.8-2.95,13.22-5.74,17.21-5.74,2.54,0,4.28.64,5.06,1.84.72,1.12.6,2.79-.34,4.83-2.21,4.8-9.52,15.75-13.95,20.92-1.17,1.37-2.63,2.94-4.17,4.61-4.44,4.79-9.03,9.75-9.6,12.6-.77,3.83.34,4.51.7,4.63l-.38-1.68s.07.2.66-2.76c.43-2.15,3.79-6.05,7.3-9.89,6.36,4.66,10.89,10.88,11.55,11.8-4.67,7-10.7,17.76-13.18,32.97-2.72,16.67.79,37.06,8.36,49.41-.49,1.27-2.42,5.61-7.88,11.98-6.08,7.09-13.03,12.27-17.63,15.7l-1.11.83c-4.18,3.13-14.5,7.27-21.82,6.91l-1.11-.05c-7.31-.36-16.41-.81-27.6-3.26-4.37-.96-9.15-2.69-13.81-4.75v-.06h-.11c-8.25-3.66-16.11-8.37-20.58-11.72-7.49-5.62-17.65-19.75-20.85-31.84-2.96-11.17-3.53-25.86-1.47-37.43,1.65-9.22,5.71-16.73,6.45-18.06.94.67,1.73,1.27,2.34,1.75.3.24.69.52,1.12.83,2.13,1.54,3.48,2.27,5.48,4.83l1.22,2.44c0-3.67-3.83-6.43-6.12-8.08-.42-.3-.79-.57-1.08-.8-2.33-1.86-7.31-5.24-12.58-8.81-1.84-1.25-3.72-2.52-5.53-3.76-6.84-4.68-13.51-11.32-14.57-14.51-1.22-3.66-.76-5.67,1.64-7.17,2.17-1.35,6.68-.53,11.9.42,1.42.26,2.88.52,4.36.76,6.6,1.04,26.81,3.7,31.08,3.7,3.98,0,5.96-1.39,9.25-3.71l.63-.44c3.79-2.65,15.6-8.47,25.65-10.62,5.18-1.11,11.25-1.66,15.97-1.93h.12Z"/>
      <path class="st6" d="M163.9,278.14c-.1.04-9.59,4.03-16.44,4.39-7.06.38-11.01-.25-14.9-1.47l-3.38-.9c5.41,2.71,9.43,3.49,14.54,3.49,1.19,0,2.45-.04,3.79-.11,6.35-.33,14.62-3.58,16.43-4.32l1.61,1.19,2.25,1.95-3.56-4.35-.34.15v-.02h0Z"/>
      <path class="st6" d="M187.95,270.81v5.58l.94-4.44.06-.32c1.1-.25,4.38-1.08,8.91-2.89,5.66-2.26,10.5-5.61,15.75-14.61l-3.83,4.38c-4.78,5.89-6.82,7.11-12.29,9.3-5.42,2.17-9.1,2.92-9.14,2.93l-.4.08h0Z"/>
      <path class="st6" d="M187.61,288.9c-.75-.13-3.15.43-8.28,1.91-.37.11-.64.19-.79.23-.68.19-1,.59-1.14.9-.24.51-.22,1.16.08,1.82.47,1.05,5.76,5.36,6.89,5.88l.15.04s.17.02.4.02c.62,0,1.8-.11,2.52-.92.59-.66,1.23-2.91,2.09-7.29l.06-.32c.1-.5.02-.95-.24-1.32-.33-.48-.91-.79-1.74-.93v-.02h0ZM188.61,290.96l-.06.33c-1.03,5.28-1.6,6.54-1.85,6.82-.5.56-1.54.61-1.98.58-1.27-.66-5.98-4.63-6.32-5.34-.17-.38-.2-.75-.09-.98.08-.17.25-.29.5-.36.15-.04.44-.12.81-.23,4.65-1.34,7.27-1.98,7.84-1.88.53.09.91.27,1.08.51.1.15.13.33.08.56h0Z"/>
    </g>
  </g>
</svg>